<?xml version="1.0" encoding="UTF-8" standalone="no" ?><svg viewBox="0 0 621.943075 239.486654" xmlns="http://www.w3.org/2000/svg" xmlns:xlink="http://www.w3.org/1999/xlink"><image alt="cloud" height="100.765991" opacity="1.000000" preserveAspectRatio="none" style="" width="181.565140" x="217.789001" xlink:href="cloud.jpg" y="8.027710"/><defs><filter height="1" id="filter0" width="1" x="0" y="0"><feFlood flood-color="transparent"/><feComposite in="SourceGraphic"/></filter><pattern height="16" id="pattern0" patternUnits="userSpaceOnUse" width="16"><image xlink:href="TL_GFX_PATTERN_4_N_Royal_Blue0.300000.png"/></pattern><marker fill="url(#pattern0)" id="arrow43" markerHeight="33.999268" markerUnits="userSpaceOnUse" markerWidth="29.444418" orient="auto" refX="0.000000" refY="16.999634" stroke="url(#pattern0)" stroke-width="1"><polygon points="0.000000,0.000000 29.444418,16.999634 0.000000,33.999268"/></marker><marker fill="url(#pattern0)" id="arrow44" markerHeight="33.999268" markerUnits="userSpaceOnUse" markerWidth="29.444418" orient="auto" refX="29.444418" refY="16.999634" stroke="url(#pattern0)" stroke-width="1"><polygon points="29.444418,0.000000 0.000000,16.999634 29.444418,33.999268"/></marker><pattern height="16" id="pattern1" patternUnits="userSpaceOnUse" width="16"><image xlink:href="TL_GFX_PATTERN_3_N_Forest_Green0.500000.png"/></pattern><marker fill="none" id="arrow45" markerHeight="9.999756" markerUnits="userSpaceOnUse" markerWidth="8.660115" orient="auto" refX="7.120537" refY="4.999878" stroke="url(#pattern1)" stroke-width="1.333333"><polyline points="1.539578,0.888889 7.120537,4.999878 1.539578,9.110867"/></marker><marker fill="none" id="arrow46" markerHeight="9.999756" markerUnits="userSpaceOnUse" markerWidth="8.660115" orient="auto" refX="1.539578" refY="4.999878" stroke="url(#pattern1)" stroke-width="1.333333"><polyline points="7.120537,0.888889 0.769789,4.999878 7.120537,9.110867"/></marker><pattern height="16" id="pattern2" patternUnits="userSpaceOnUse" width="16"><image xlink:href="TL_GFX_PATTERN_3_N_Blue0.500000.png"/></pattern><marker fill="none" id="arrow47" markerHeight="9.999756" markerUnits="userSpaceOnUse" markerWidth="8.660115" orient="auto" refX="7.120537" refY="4.999878" stroke="url(#pattern2)" stroke-width="1.333333"><polyline points="1.539578,0.888889 7.120537,4.999878 1.539578,9.110867"/></marker><marker fill="none" id="arrow48" markerHeight="9.999756" markerUnits="userSpaceOnUse" markerWidth="8.660115" orient="auto" refX="1.539578" refY="4.999878" stroke="url(#pattern2)" stroke-width="1.333333"><polyline points="7.120537,0.888889 0.769789,4.999878 7.120537,9.110867"/></marker><pattern height="16" id="pattern3" patternUnits="userSpaceOnUse" width="16"><image xlink:href="TL_GFX_PATTERN_3_N_Red0.500000.png"/></pattern><marker fill="none" id="arrow49" markerHeight="9.999756" markerUnits="userSpaceOnUse" markerWidth="8.660115" orient="auto" refX="7.120537" refY="4.999878" stroke="url(#pattern3)" stroke-width="1.333333"><polyline points="1.539578,0.888889 7.120537,4.999878 1.539578,9.110867"/></marker><marker fill="none" id="arrow50" markerHeight="9.999756" markerUnits="userSpaceOnUse" markerWidth="8.660115" orient="auto" refX="1.539578" refY="4.999878" stroke="url(#pattern3)" stroke-width="1.333333"><polyline points="7.120537,0.888889 0.769789,4.999878 7.120537,9.110867"/></marker><pattern height="16" id="pattern4" patternUnits="userSpaceOnUse" width="16"><image xlink:href="TL_GFX_PATTERN_0_N_Black1.000000.png"/></pattern><pattern height="16" id="pattern5" patternUnits="userSpaceOnUse" width="16"><image xlink:href="TL_GFX_PATTERN_6_N_Dark_Grey0.030000.png"/></pattern><pattern height="16" id="pattern6" patternUnits="userSpaceOnUse" width="16"><image xlink:href="TL_GFX_PATTERN_0_N_Dark_Grey1.000000.png"/></pattern><pattern height="16" id="pattern7" patternUnits="userSpaceOnUse" width="16"><image xlink:href="TL_GFX_PATTERN_4_N_Dark_Grey0.300000.png"/></pattern><marker fill="url(#pattern4)" id="arrow51" markerHeight="0.232381" markerUnits="userSpaceOnUse" markerWidth="1.328247" orient="auto" refX="0.000000" refY="0.116191" stroke="url(#pattern4)" stroke-width="1"><polygon points="0.000000,0.000000 1.328247,0.116191 0.000000,0.232381"/></marker><marker fill="url(#pattern4)" id="arrow52" markerHeight="0.232381" markerUnits="userSpaceOnUse" markerWidth="1.328247" orient="auto" refX="1.328247" refY="0.116191" stroke="url(#pattern4)" stroke-width="1"><polygon points="1.328247,0.000000 0.000000,0.116191 1.328247,0.232381"/></marker><marker fill="url(#pattern4)" id="arrow53" markerHeight="0.232381" markerUnits="userSpaceOnUse" markerWidth="1.328247" orient="auto" refX="0.000000" refY="0.116191" stroke="url(#pattern4)" stroke-width="1"><polygon points="0.000000,0.000000 1.328247,0.116191 0.000000,0.232381"/></marker><marker fill="url(#pattern4)" id="arrow54" markerHeight="0.232381" markerUnits="userSpaceOnUse" markerWidth="1.328247" orient="auto" refX="1.328247" refY="0.116191" stroke="url(#pattern4)" stroke-width="1"><polygon points="1.328247,0.000000 0.000000,0.116191 1.328247,0.232381"/></marker><marker fill="url(#pattern4)" id="arrow55" markerHeight="0.232381" markerUnits="userSpaceOnUse" markerWidth="1.328247" orient="auto" refX="0.000000" refY="0.116191" stroke="url(#pattern4)" stroke-width="1"><polygon points="0.000000,0.000000 1.328247,0.116191 0.000000,0.232381"/></marker><marker fill="url(#pattern4)" id="arrow56" markerHeight="0.232381" markerUnits="userSpaceOnUse" markerWidth="1.328247" orient="auto" refX="1.328247" refY="0.116191" stroke="url(#pattern4)" stroke-width="1"><polygon points="1.328247,0.000000 0.000000,0.116191 1.328247,0.232381"/></marker><marker fill="url(#pattern4)" id="arrow57" markerHeight="0.232381" markerUnits="userSpaceOnUse" markerWidth="1.328247" orient="auto" refX="0.000000" refY="0.116191" stroke="url(#pattern4)" stroke-width="1"><polygon points="0.000000,0.000000 1.328247,0.116191 0.000000,0.232381"/></marker><marker fill="url(#pattern4)" id="arrow58" markerHeight="0.232381" markerUnits="userSpaceOnUse" markerWidth="1.328247" orient="auto" refX="1.328247" refY="0.116191" stroke="url(#pattern4)" stroke-width="1"><polygon points="1.328247,0.000000 0.000000,0.116191 1.328247,0.232381"/></marker></defs><text lengthAdjust="spacingAndGlyphs" style="font-family : Times New Roman ; font-weight:normal;font-style:normal;font-size : 9.00pt;text-decoration:none;font-kerning:none;text-transform:none;font-stretch:normal;fill:#000000;background-color:transparent;letter-spacing : 0.00em;;white-space:pre;filter:url(#filter0)" textLength="109.191246" x="253.975952" y="55.874187">SPBM Network Cloud</text><text lengthAdjust="spacingAndGlyphs" style="font-family : Times New Roman ; font-weight:normal;font-style:normal;font-size : 9.00pt;text-decoration:none;font-kerning:none;text-transform:none;font-stretch:normal;fill:#000000;background-color:transparent;letter-spacing : 0.00em;;white-space:pre;filter:url(#filter0)" textLength="21.977255" x="421.090088" y="92.734093">SAP</text><text lengthAdjust="spacingAndGlyphs" style="font-family : Times New Roman ; font-weight:normal;font-style:normal;font-size : 9.00pt;text-decoration:none;font-kerning:normal;text-transform:none;font-stretch:normal;fill:#000000;background-color:transparent;letter-spacing : 0.00em;;white-space:pre;filter:url(#filter0)" textLength="21.977255" x="177.892807" y="92.734093">SAP</text><image height="20.831991" opacity="1.000000" preserveAspectRatio="none" style="" width="120.863991" x="389.087911" xlink:href="os8_nt_-_Web_7-Configuring_Shortest_Path_Bridging_image182.jpg" y="61.205587"/><text lengthAdjust="spacingAndGlyphs" style="font-family : Times New Roman ; font-weight:normal;font-style:normal;font-size : 9.00pt;text-decoration:none;font-kerning:normal;text-transform:none;font-stretch:normal;fill:#000000;background-color:transparent;letter-spacing : 0.00em;;white-space:pre;filter:url(#filter0)" textLength="33.289429" x="64.027565" y="75.134315">BEB-1</text><text lengthAdjust="spacingAndGlyphs" style="font-family : Times New Roman ; font-weight:normal;font-style:normal;font-size : 9.00pt;text-decoration:none;font-kerning:normal;text-transform:none;font-stretch:normal;fill:#000000;background-color:transparent;letter-spacing : 0.00em;;white-space:pre;filter:url(#filter0)" textLength="33.289429" x="514.958862" y="75.134315">BEB-2</text><text lengthAdjust="spacingAndGlyphs" style="font-family : Times New Roman ; font-weight:normal;font-style:normal;font-size : 9.00pt;text-decoration:none;font-kerning:normal;text-transform:none;font-stretch:normal;fill:#000000;background-color:transparent;letter-spacing : 0.00em;;white-space:pre;filter:url(#filter0)" textLength="25.296610" x="555.492126" y="148.734192">CE-2</text><text lengthAdjust="spacingAndGlyphs" style="font-family : Times New Roman ; font-weight:normal;font-style:normal;font-size : 9.00pt;text-decoration:none;font-kerning:normal;text-transform:none;font-stretch:normal;fill:#000000;background-color:transparent;letter-spacing : 0.00em;;white-space:pre;filter:url(#filter0)" textLength="25.296610" x="37.360981" y="148.734192">CE-1</text><image height="20.831991" opacity="1.000000" preserveAspectRatio="none" style="" width="120.863991" x="102.421244" xlink:href="os8_nt_-_Web_7-Configuring_Shortest_Path_Bridging_image183.jpg" y="61.205587"/><line fill="url(#pattern0)" marker-end="url(#arrow43)" marker-start="url(#arrow44)" stroke="url(#pattern0)" stroke-width="17.333334" x1="251.711716" x2="360.821747" y1="72.004555" y2="72.524208"/><line fill="none" marker-end="url(#arrow45)" marker-start="url(#arrow46)" stroke="url(#pattern1)" stroke-width="1.333333" x1="252.282852" x2="357.787598" y1="67.597778" y2="67.597778"/><line fill="none" marker-end="url(#arrow47)" marker-start="url(#arrow48)" stroke="url(#pattern2)" stroke-width="1.333333" x1="252.282852" x2="357.787598" y1="72.397766" y2="72.397766"/><line fill="none" marker-end="url(#arrow49)" marker-start="url(#arrow50)" stroke="url(#pattern3)" stroke-width="1.333333" x1="252.282852" x2="357.787598" y1="77.197754" y2="77.197754"/><image height="20.831991" opacity="1.000000" preserveAspectRatio="none" style="" width="120.863991" x="429.087911" xlink:href="os8_nt_-_Web_7-Configuring_Shortest_Path_Bridging_image184.jpg" y="133.205587"/><image height="20.831991" opacity="1.000000" preserveAspectRatio="none" style="" width="120.863991" x="69.087911" xlink:href="os8_nt_-_Web_7-Configuring_Shortest_Path_Bridging_image185.jpg" y="133.205587"/><image height="31.402405" opacity="1.000000" preserveAspectRatio="none" style="" width="42.212952" x="411.468384" xlink:href="os8_nt_-_Web_7-Configuring_Shortest_Path_Bridging_image186.jpg" y="181.511414"/><image height="31.402405" opacity="1.000000" preserveAspectRatio="none" style="" width="42.212952" x="473.868286" xlink:href="os8_nt_-_Web_7-Configuring_Shortest_Path_Bridging_image187.jpg" y="181.511414"/><line fill="none" stroke="url(#pattern4)" stroke-width="0.666667" x1="430.666656" x2="449.866455" y1="183.330368" y2="152.130737"/><line fill="none" stroke="url(#pattern4)" stroke-width="0.666667" x1="492.266327" x2="467.466217" y1="183.330368" y2="152.130737"/><polygon fill="url(#pattern5)" points="569,174 552,175 552,210 569,207" stroke="url(#pattern6)" stroke-width="0.500000"/><polygon fill="url(#pattern5)" points="552,175 552,210 539,201 539,170" stroke="url(#pattern6)" stroke-width="0.500000"/><polygon fill="url(#pattern5)" points="552,175 539,170 552,169 569,174" stroke="url(#pattern6)" stroke-width="0.500000"/><polyline fill="none" points="551.775,170.019 568.339,174.319 568.339,207.455" stroke="url(#pattern6)" stroke-width="0.500000"/><polygon fill="url(#pattern6)" points="561,177 561,188 560,188 560,177" stroke-width="0.500000"/><line fill="url(#pattern6)" stroke="url(#pattern6)" stroke-width="0.500000" x1="563.888000" x2="566.984009" y1="175.752625" y2="175.455261"/><line fill="url(#pattern6)" stroke="url(#pattern6)" stroke-width="0.500000" x1="563.888000" x2="566.984009" y1="176.921326" y2="176.613083"/><line fill="url(#pattern6)" stroke="url(#pattern6)" stroke-width="0.500000" x1="563.888000" x2="566.984009" y1="178.090088" y2="177.770706"/><line fill="url(#pattern6)" stroke="url(#pattern6)" stroke-width="0.500000" x1="563.888000" x2="566.984009" y1="179.258804" y2="178.928543"/><line fill="url(#pattern6)" stroke="url(#pattern6)" stroke-width="0.500000" x1="563.888000" x2="566.984009" y1="180.427551" y2="180.086166"/><line fill="url(#pattern6)" stroke="url(#pattern6)" stroke-width="0.500000" x1="563.888000" x2="566.984009" y1="181.596298" y2="181.243835"/><line fill="url(#pattern6)" stroke="url(#pattern6)" stroke-width="0.500000" x1="563.888000" x2="566.984009" y1="182.764999" y2="182.401657"/><line fill="url(#pattern6)" stroke="url(#pattern6)" stroke-width="0.500000" x1="563.888000" x2="566.984009" y1="183.933762" y2="183.559280"/><line fill="url(#pattern6)" stroke="url(#pattern6)" stroke-width="0.500000" x1="563.888000" x2="566.984009" y1="185.102493" y2="184.717102"/><line fill="url(#pattern6)" stroke="url(#pattern6)" stroke-width="0.500000" x1="563.888000" x2="566.984009" y1="186.271225" y2="185.874802"/><line fill="url(#pattern6)" stroke="url(#pattern6)" stroke-width="0.500000" x1="563.888000" x2="566.984009" y1="187.439941" y2="187.032578"/><line fill="url(#pattern6)" stroke="url(#pattern6)" stroke-width="0.500000" x1="563.888000" x2="566.984009" y1="188.608643" y2="188.190247"/><line fill="url(#pattern6)" stroke="url(#pattern6)" stroke-width="0.500000" x1="563.888000" x2="566.984009" y1="189.777405" y2="189.348022"/><line fill="url(#pattern6)" stroke="url(#pattern6)" stroke-width="0.500000" x1="563.888000" x2="566.984009" y1="190.946121" y2="190.459183"/><line fill="url(#pattern6)" stroke="url(#pattern6)" stroke-width="0.500000" x1="563.888000" x2="566.984009" y1="192.114822" y2="191.663376"/><line fill="url(#pattern6)" stroke="url(#pattern6)" stroke-width="0.500000" x1="563.888000" x2="566.984009" y1="193.283569" y2="192.821167"/><line fill="url(#pattern6)" stroke="url(#pattern6)" stroke-width="0.500000" x1="563.888000" x2="566.984009" y1="194.452316" y2="193.978806"/><line fill="url(#pattern6)" stroke="url(#pattern6)" stroke-width="0.500000" x1="563.888000" x2="566.984009" y1="195.621048" y2="195.136612"/><line fill="url(#pattern6)" stroke="url(#pattern6)" stroke-width="0.500000" x1="563.888000" x2="566.984009" y1="196.789810" y2="196.294296"/><line fill="url(#pattern6)" stroke="url(#pattern6)" stroke-width="0.500000" x1="563.888000" x2="566.984009" y1="197.958511" y2="197.452087"/><line fill="url(#pattern6)" stroke="url(#pattern6)" stroke-width="0.500000" x1="563.888000" x2="566.984009" y1="199.127274" y2="198.609741"/><line fill="url(#pattern6)" stroke="url(#pattern6)" stroke-width="0.500000" x1="563.888000" x2="566.984009" y1="200.295959" y2="199.767563"/><line fill="url(#pattern6)" stroke="url(#pattern6)" stroke-width="0.500000" x1="563.888000" x2="566.984009" y1="201.464722" y2="200.925186"/><line fill="url(#pattern6)" stroke="url(#pattern6)" stroke-width="0.500000" x1="563.888000" x2="566.984009" y1="202.633438" y2="202.082870"/><line fill="url(#pattern6)" stroke="url(#pattern6)" stroke-width="0.500000" x1="563.888000" x2="566.984009" y1="203.802185" y2="203.240662"/><line fill="url(#pattern6)" stroke="url(#pattern6)" stroke-width="0.500000" x1="563.888000" x2="566.984009" y1="204.970901" y2="204.398331"/><line fill="url(#pattern6)" stroke="url(#pattern6)" stroke-width="0.500000" x1="563.888000" x2="566.984009" y1="206.139633" y2="205.556152"/><line fill="url(#pattern6)" stroke="url(#pattern6)" stroke-width="0.500000" x1="563.888000" x2="566.984009" y1="207.309753" y2="206.714554"/><ellipse cx="561" cy="176" fill="url(#pattern6)" rx="0" ry="0" stroke-width="0.500000"/><polygon fill="url(#pattern7)" points="554,177 553,177 553,177 554,177" stroke="url(#pattern6)" stroke-width="0.500000"/><polygon fill="none" points="561,188 561,177 562,177 562,188" stroke="url(#pattern6)" stroke-width="0.500000"/><polygon fill="none" points="562,188 561,188 560,188 560,188" stroke="url(#pattern6)" stroke-width="0.500000"/><path d="M 553.980713 185.989822 C 554.039795 185.874283 554.039795 185.874283 554.122375 185.864334 554.206848 185.847336 554.297791 185.852829 554.369568 185.907608 554.457397 185.954041 554.457397 185.954041 554.553284 185.932251 554.649109 185.910446 554.649109 185.910446 554.717102 185.924973 554.816101 185.936111 554.892578 186.030136 554.915771 186.127914 554.976257 186.269043 554.919006 186.438797 554.841125 186.560867 554.773743 186.662170 554.722900 186.820084 554.586609 186.833939 554.472839 186.894302 554.366394 186.779358 554.251526 186.815475 554.177002 186.826172 554.177002 186.826172 554.112610 186.816177 553.967529 186.781860 553.919495 186.583923 553.874573 186.454788" fill="none" stroke="url(#pattern6)" stroke-width="0.500000"/><path d="M 553.952820 186.062943 C 554.135803 186.165176 554.094482 186.497986 553.846680 186.528076" fill="none" stroke="url(#pattern6)" stroke-width="0.500000"/><path d="M 554 185 C 554 185 554 185 554 185 554 185 554 185 554 185 554 185 554 185 554 185 554 185 554 185 554 185 Z" fill="none" stroke="url(#pattern6)" stroke-width="0.500000"/><ellipse cx="554" cy="203" fill="none" rx="0" ry="0" stroke="url(#pattern6)" stroke-width="0.500000"/><ellipse cx="554" cy="203" fill="none" rx="0" ry="0" stroke="url(#pattern6)" stroke-width="0.500000"/><ellipse cx="554" cy="203" fill="none" rx="0" ry="0" stroke="url(#pattern6)" stroke-width="0.500000"/><ellipse cx="554" cy="206" fill="none" rx="0" ry="0" stroke="url(#pattern6)" stroke-width="0.500000"/><ellipse cx="554" cy="206" fill="none" rx="0" ry="0" stroke="url(#pattern6)" stroke-width="0.500000"/><polygon fill="none" points="554,206 554,206 554,206" stroke="url(#pattern6)" stroke-width="0.500000"/><line fill="none" stroke="url(#pattern6)" stroke-width="0.500000" x1="539.870789" x2="551.407654" y1="172.793900" y2="177.364319"/><line fill="none" stroke="url(#pattern6)" stroke-width="0.500000" x1="539.870789" x2="551.407654" y1="173.809586" y2="178.520859"/><line fill="none" stroke="url(#pattern6)" stroke-width="0.500000" x1="539.870789" x2="551.407654" y1="174.825119" y2="179.677414"/><line fill="none" stroke="url(#pattern6)" stroke-width="0.500000" x1="539.870789" x2="551.407654" y1="175.840622" y2="180.833984"/><line fill="none" stroke="url(#pattern6)" stroke-width="0.500000" x1="539.870789" x2="551.407654" y1="176.856140" y2="181.990555"/><line fill="none" stroke="url(#pattern6)" stroke-width="0.500000" x1="539.870789" x2="551.407654" y1="177.871841" y2="183.147110"/><line fill="none" stroke="url(#pattern6)" stroke-width="0.500000" x1="539.870789" x2="551.407654" y1="178.887344" y2="184.303818"/><line fill="none" stroke="url(#pattern6)" stroke-width="0.500000" x1="539.870789" x2="551.407654" y1="179.902893" y2="185.460342"/><line fill="none" stroke="url(#pattern6)" stroke-width="0.500000" x1="539.870789" x2="551.407654" y1="180.918533" y2="186.616959"/><line fill="none" stroke="url(#pattern6)" stroke-width="0.500000" x1="539.870789" x2="551.407654" y1="181.934021" y2="187.773514"/><line fill="none" stroke="url(#pattern6)" stroke-width="0.500000" x1="539.870789" x2="551.407654" y1="182.949570" y2="188.930038"/><line fill="none" stroke="url(#pattern6)" stroke-width="0.500000" x1="539.870789" x2="551.407654" y1="183.965271" y2="190.086746"/><line fill="none" stroke="url(#pattern6)" stroke-width="0.500000" x1="539.870789" x2="551.407654" y1="184.980774" y2="191.243347"/><line fill="none" stroke="url(#pattern6)" stroke-width="0.500000" x1="539.870789" x2="551.407654" y1="185.996323" y2="192.399902"/><line fill="none" stroke="url(#pattern6)" stroke-width="0.500000" x1="539.870789" x2="551.407654" y1="187.011826" y2="193.556458"/><line fill="none" stroke="url(#pattern6)" stroke-width="0.500000" x1="539.870789" x2="551.407654" y1="188.027481" y2="194.713058"/><line fill="none" stroke="url(#pattern6)" stroke-width="0.500000" x1="539.870789" x2="551.407654" y1="189.043045" y2="195.869614"/><line fill="none" stroke="url(#pattern6)" stroke-width="0.500000" x1="539.870789" x2="551.407654" y1="190.058548" y2="197.026291"/><line fill="none" stroke="url(#pattern6)" stroke-width="0.500000" x1="539.870789" x2="551.407654" y1="191.074234" y2="198.182846"/><line fill="none" stroke="url(#pattern6)" stroke-width="0.500000" x1="539.870789" x2="551.407654" y1="192.089767" y2="199.339417"/><line fill="none" stroke="url(#pattern6)" stroke-width="0.500000" x1="539.870789" x2="551.407654" y1="193.105286" y2="200.495972"/><line fill="none" stroke="url(#pattern6)" stroke-width="0.500000" x1="539.870789" x2="551.407654" y1="194.120972" y2="201.652542"/><line fill="none" stroke="url(#pattern6)" stroke-width="0.500000" x1="539.870789" x2="551.407654" y1="195.136459" y2="202.809311"/><line fill="none" stroke="url(#pattern6)" stroke-width="0.500000" x1="539.870789" x2="551.407654" y1="196.151978" y2="203.965836"/><line fill="none" stroke="url(#pattern6)" stroke-width="0.500000" x1="539.870789" x2="551.407654" y1="197.167496" y2="205.122421"/><line fill="none" stroke="url(#pattern6)" stroke-width="0.500000" x1="539.870789" x2="551.407654" y1="198.183167" y2="206.278915"/><line fill="none" stroke="url(#pattern6)" stroke-width="0.500000" x1="539.870789" x2="551.407654" y1="199.198715" y2="207.435486"/><line fill="none" stroke="url(#pattern6)" stroke-width="0.500000" x1="539.870789" x2="551.407654" y1="200.215637" y2="208.594589"/><path d="M 550 209 C 550 209 550 209 549 209 549 208 549 208 549 208 548 209 550 210 550 209 Z" fill="url(#pattern5)" stroke="url(#pattern6)" stroke-width="0.500000"/><polyline fill="url(#pattern5)" points="550.506,209.751 550.506,207.326 549.03,206.932 549.03,209.148" stroke="url(#pattern6)" stroke-width="0.500000"/><path d="M 550 207 C 550 207 550 207 549 206 549 206 549 206 549 206 548 207 550 207 550 207 Z" fill="url(#pattern5)" stroke="url(#pattern6)" stroke-width="0.500000"/><path d="M 541 202 C 541 202 541 202 540 202 539 201 539 201 539 201 539 202 540 203 541 202 Z" fill="url(#pattern5)" stroke="url(#pattern6)" stroke-width="0.500000"/><polyline fill="url(#pattern5)" points="541.129,202.901 541.129,200.619 539.74,200.249 539.74,202.334" stroke="url(#pattern6)" stroke-width="0.500000"/><path d="M 541 200 C 541 200 541 200 540 200 539 199 539 199 539 199 539 200 540 200 541 200 Z" fill="url(#pattern5)" stroke="url(#pattern6)" stroke-width="0.500000"/><polyline fill="none" points="568.131,207.494 568.131,174.339 551.525,170.035" stroke="url(#pattern6)" stroke-width="0.500000"/><line fill="none" marker-end="url(#arrow51)" marker-start="url(#arrow52)" stroke="url(#pattern4)" stroke-width="0.666667" x1="521.207764" x2="540.929016" y1="152.980423" y2="172.701706"/><line fill="none" marker-end="url(#arrow53)" marker-start="url(#arrow54)" stroke="url(#pattern4)" stroke-width="0.666667" x1="446.537598" x2="498.258514" y1="82.403526" y2="134.124405"/><line fill="none" marker-end="url(#arrow55)" marker-start="url(#arrow56)" stroke="url(#pattern4)" stroke-width="0.666667" x1="172.925034" x2="121.204102" y1="82.403526" y2="134.124405"/><text lengthAdjust="spacingAndGlyphs" style="font-family : Times New Roman ; font-weight:normal;font-style:normal;font-size : 7.00pt;text-decoration:none;font-kerning:normal;text-transform:none;font-stretch:normal;fill:#000000;background-color:transparent;letter-spacing : 0.00em;;white-space:pre;filter:url(#filter0)" textLength="37.523724" x="476.212891" y="222.244858">VLAN 20</text><text lengthAdjust="spacingAndGlyphs" style="font-family : Times New Roman ; font-weight:normal;font-style:normal;font-size : 7.00pt;text-decoration:none;font-kerning:normal;text-transform:none;font-stretch:normal;fill:#000000;background-color:transparent;letter-spacing : 0.00em;;white-space:pre;filter:url(#filter0)" textLength="37.523724" x="413.812988" y="222.244858">VLAN 10</text><text lengthAdjust="spacingAndGlyphs" style="font-family : Times New Roman ; font-weight:normal;font-style:normal;font-size : 7.00pt;text-decoration:none;font-kerning:normal;text-transform:none;font-stretch:normal;fill:#000000;background-color:transparent;letter-spacing : 0.00em;;white-space:pre;filter:url(#filter0)" textLength="37.523724" x="535.688904" y="219.578232">VLAN 30</text><image height="31.402405" opacity="1.000000" preserveAspectRatio="none" style="" width="42.212952" x="49.696126" xlink:href="os8_nt_-_Web_7-Configuring_Shortest_Path_Bridging_image188.jpg" y="181.511414"/><image height="31.402405" opacity="1.000000" preserveAspectRatio="none" style="" width="42.212952" x="112.096029" xlink:href="os8_nt_-_Web_7-Configuring_Shortest_Path_Bridging_image189.jpg" y="181.511414"/><line fill="none" stroke="url(#pattern4)" stroke-width="0.666667" x1="68.894409" x2="88.094177" y1="183.330368" y2="152.130737"/><line fill="none" stroke="url(#pattern4)" stroke-width="0.666667" x1="130.494064" x2="105.693970" y1="183.330368" y2="152.130737"/><polygon fill="url(#pattern5)" points="207,174 190,175 190,210 207,207" stroke="url(#pattern6)" stroke-width="0.500000"/><polygon fill="url(#pattern5)" points="190,175 190,210 177,201 177,170" stroke="url(#pattern6)" stroke-width="0.500000"/><polygon fill="url(#pattern5)" points="190,175 177,170 190,169 207,174" stroke="url(#pattern6)" stroke-width="0.500000"/><polyline fill="none" points="190.003,170.019 206.567,174.319 206.567,207.455" stroke="url(#pattern6)" stroke-width="0.500000"/><polygon fill="url(#pattern6)" points="199,177 199,188 199,188 199,177" stroke-width="0.500000"/><line fill="url(#pattern6)" stroke="url(#pattern6)" stroke-width="0.500000" x1="202.115738" x2="205.211746" y1="175.752625" y2="175.455261"/><line fill="url(#pattern6)" stroke="url(#pattern6)" stroke-width="0.500000" x1="202.115738" x2="205.211746" y1="176.921326" y2="176.613083"/><line fill="url(#pattern6)" stroke="url(#pattern6)" stroke-width="0.500000" x1="202.115738" x2="205.211746" y1="178.090088" y2="177.770706"/><line fill="url(#pattern6)" stroke="url(#pattern6)" stroke-width="0.500000" x1="202.115738" x2="205.211746" y1="179.258804" y2="178.928543"/><line fill="url(#pattern6)" stroke="url(#pattern6)" stroke-width="0.500000" x1="202.115738" x2="205.211746" y1="180.427551" y2="180.086166"/><line fill="url(#pattern6)" stroke="url(#pattern6)" stroke-width="0.500000" x1="202.115738" x2="205.211746" y1="181.596298" y2="181.243835"/><line fill="url(#pattern6)" stroke="url(#pattern6)" stroke-width="0.500000" x1="202.115738" x2="205.211746" y1="182.764999" y2="182.401657"/><line fill="url(#pattern6)" stroke="url(#pattern6)" stroke-width="0.500000" x1="202.115738" x2="205.211746" y1="183.933762" y2="183.559280"/><line fill="url(#pattern6)" stroke="url(#pattern6)" stroke-width="0.500000" x1="202.115738" x2="205.211746" y1="185.102493" y2="184.717102"/><line fill="url(#pattern6)" stroke="url(#pattern6)" stroke-width="0.500000" x1="202.115738" x2="205.211746" y1="186.271225" y2="185.874802"/><line fill="url(#pattern6)" stroke="url(#pattern6)" stroke-width="0.500000" x1="202.115738" x2="205.211746" y1="187.439941" y2="187.032578"/><line fill="url(#pattern6)" stroke="url(#pattern6)" stroke-width="0.500000" x1="202.115738" x2="205.211746" y1="188.608643" y2="188.190247"/><line fill="url(#pattern6)" stroke="url(#pattern6)" stroke-width="0.500000" x1="202.115738" x2="205.211746" y1="189.777405" y2="189.348022"/><line fill="url(#pattern6)" stroke="url(#pattern6)" stroke-width="0.500000" x1="202.115738" x2="205.211746" y1="190.946121" y2="190.459183"/><line fill="url(#pattern6)" stroke="url(#pattern6)" stroke-width="0.500000" x1="202.115738" x2="205.211746" y1="192.114822" y2="191.663376"/><line fill="url(#pattern6)" stroke="url(#pattern6)" stroke-width="0.500000" x1="202.115738" x2="205.211746" y1="193.283569" y2="192.821167"/><line fill="url(#pattern6)" stroke="url(#pattern6)" stroke-width="0.500000" x1="202.115738" x2="205.211746" y1="194.452316" y2="193.978806"/><line fill="url(#pattern6)" stroke="url(#pattern6)" stroke-width="0.500000" x1="202.115738" x2="205.211746" y1="195.621048" y2="195.136612"/><line fill="url(#pattern6)" stroke="url(#pattern6)" stroke-width="0.500000" x1="202.115738" x2="205.211746" y1="196.789810" y2="196.294296"/><line fill="url(#pattern6)" stroke="url(#pattern6)" stroke-width="0.500000" x1="202.115738" x2="205.211746" y1="197.958511" y2="197.452087"/><line fill="url(#pattern6)" stroke="url(#pattern6)" stroke-width="0.500000" x1="202.115738" x2="205.211746" y1="199.127274" y2="198.609741"/><line fill="url(#pattern6)" stroke="url(#pattern6)" stroke-width="0.500000" x1="202.115738" x2="205.211746" y1="200.295959" y2="199.767563"/><line fill="url(#pattern6)" stroke="url(#pattern6)" stroke-width="0.500000" x1="202.115738" x2="205.211746" y1="201.464722" y2="200.925186"/><line fill="url(#pattern6)" stroke="url(#pattern6)" stroke-width="0.500000" x1="202.115738" x2="205.211746" y1="202.633438" y2="202.082870"/><line fill="url(#pattern6)" stroke="url(#pattern6)" stroke-width="0.500000" x1="202.115738" x2="205.211746" y1="203.802185" y2="203.240662"/><line fill="url(#pattern6)" stroke="url(#pattern6)" stroke-width="0.500000" x1="202.115738" x2="205.211746" y1="204.970901" y2="204.398331"/><line fill="url(#pattern6)" stroke="url(#pattern6)" stroke-width="0.500000" x1="202.115738" x2="205.211746" y1="206.139633" y2="205.556152"/><line fill="url(#pattern6)" stroke="url(#pattern6)" stroke-width="0.500000" x1="202.115738" x2="205.211746" y1="207.309753" y2="206.714554"/><ellipse cx="199" cy="176" fill="url(#pattern6)" rx="0" ry="0" stroke-width="0.500000"/><polygon fill="url(#pattern7)" points="192,177 191,177 191,177 192,177" stroke="url(#pattern6)" stroke-width="0.500000"/><polygon fill="none" points="199,188 199,177 200,177 200,188" stroke="url(#pattern6)" stroke-width="0.500000"/><polygon fill="none" points="200,188 199,188 199,188 199,188" stroke="url(#pattern6)" stroke-width="0.500000"/><path d="M 192.208435 185.989822 C 192.267563 185.874283 192.267563 185.874283 192.350159 185.864334 192.434570 185.847336 192.525513 185.852829 192.597275 185.907608 192.685135 185.954041 192.685135 185.954041 192.781006 185.932251 192.876816 185.910446 192.876816 185.910446 192.944870 185.924973 193.043869 185.936111 193.120300 186.030136 193.143509 186.127914 193.204025 186.269043 193.146774 186.438797 193.068848 186.560867 193.001465 186.662170 192.950638 186.820084 192.814316 186.833939 192.700562 186.894302 192.594131 186.779358 192.479248 186.815475 192.404724 186.826172 192.404724 186.826172 192.340332 186.816177 192.195297 186.781860 192.147278 186.583923 192.102356 186.454788" fill="none" stroke="url(#pattern6)" stroke-width="0.500000"/><path d="M 192.180557 186.062943 C 192.363586 186.165176 192.322250 186.497986 192.074448 186.528076" fill="none" stroke="url(#pattern6)" stroke-width="0.500000"/><path d="M 192 185 C 192 185 192 185 192 185 192 185 192 185 192 185 192 185 192 185 192 185 192 185 192 185 192 185 Z" fill="none" stroke="url(#pattern6)" stroke-width="0.500000"/><ellipse cx="192" cy="203" fill="none" rx="0" ry="0" stroke="url(#pattern6)" stroke-width="0.500000"/><ellipse cx="192" cy="203" fill="none" rx="0" ry="0" stroke="url(#pattern6)" stroke-width="0.500000"/><ellipse cx="192" cy="203" fill="none" rx="0" ry="0" stroke="url(#pattern6)" stroke-width="0.500000"/><ellipse cx="192" cy="206" fill="none" rx="0" ry="0" stroke="url(#pattern6)" stroke-width="0.500000"/><ellipse cx="192" cy="206" fill="none" rx="0" ry="0" stroke="url(#pattern6)" stroke-width="0.500000"/><polygon fill="none" points="193,206 192,206 192,206" stroke="url(#pattern6)" stroke-width="0.500000"/><line fill="none" stroke="url(#pattern6)" stroke-width="0.500000" x1="178.098557" x2="189.635376" y1="172.793900" y2="177.364319"/><line fill="none" stroke="url(#pattern6)" stroke-width="0.500000" x1="178.098557" x2="189.635376" y1="173.809586" y2="178.520859"/><line fill="none" stroke="url(#pattern6)" stroke-width="0.500000" x1="178.098557" x2="189.635376" y1="174.825119" y2="179.677414"/><line fill="none" stroke="url(#pattern6)" stroke-width="0.500000" x1="178.098557" x2="189.635376" y1="175.840622" y2="180.833984"/><line fill="none" stroke="url(#pattern6)" stroke-width="0.500000" x1="178.098557" x2="189.635376" y1="176.856140" y2="181.990555"/><line fill="none" stroke="url(#pattern6)" stroke-width="0.500000" x1="178.098557" x2="189.635376" y1="177.871841" y2="183.147110"/><line fill="none" stroke="url(#pattern6)" stroke-width="0.500000" x1="178.098557" x2="189.635376" y1="178.887344" y2="184.303818"/><line fill="none" stroke="url(#pattern6)" stroke-width="0.500000" x1="178.098557" x2="189.635376" y1="179.902893" y2="185.460342"/><line fill="none" stroke="url(#pattern6)" stroke-width="0.500000" x1="178.098557" x2="189.635376" y1="180.918533" y2="186.616959"/><line fill="none" stroke="url(#pattern6)" stroke-width="0.500000" x1="178.098557" x2="189.635376" y1="181.934021" y2="187.773514"/><line fill="none" stroke="url(#pattern6)" stroke-width="0.500000" x1="178.098557" x2="189.635376" y1="182.949570" y2="188.930038"/><line fill="none" stroke="url(#pattern6)" stroke-width="0.500000" x1="178.098557" x2="189.635376" y1="183.965271" y2="190.086746"/><line fill="none" stroke="url(#pattern6)" stroke-width="0.500000" x1="178.098557" x2="189.635376" y1="184.980774" y2="191.243347"/><line fill="none" stroke="url(#pattern6)" stroke-width="0.500000" x1="178.098557" x2="189.635376" y1="185.996323" y2="192.399902"/><line fill="none" stroke="url(#pattern6)" stroke-width="0.500000" x1="178.098557" x2="189.635376" y1="187.011826" y2="193.556458"/><line fill="none" stroke="url(#pattern6)" stroke-width="0.500000" x1="178.098557" x2="189.635376" y1="188.027481" y2="194.713058"/><line fill="none" stroke="url(#pattern6)" stroke-width="0.500000" x1="178.098557" x2="189.635376" y1="189.043045" y2="195.869614"/><line fill="none" stroke="url(#pattern6)" stroke-width="0.500000" x1="178.098557" x2="189.635376" y1="190.058548" y2="197.026291"/><line fill="none" stroke="url(#pattern6)" stroke-width="0.500000" x1="178.098557" x2="189.635376" y1="191.074234" y2="198.182846"/><line fill="none" stroke="url(#pattern6)" stroke-width="0.500000" x1="178.098557" x2="189.635376" y1="192.089767" y2="199.339417"/><line fill="none" stroke="url(#pattern6)" stroke-width="0.500000" x1="178.098557" x2="189.635376" y1="193.105286" y2="200.495972"/><line fill="none" stroke="url(#pattern6)" stroke-width="0.500000" x1="178.098557" x2="189.635376" y1="194.120972" y2="201.652542"/><line fill="none" stroke="url(#pattern6)" stroke-width="0.500000" x1="178.098557" x2="189.635376" y1="195.136459" y2="202.809311"/><line fill="none" stroke="url(#pattern6)" stroke-width="0.500000" x1="178.098557" x2="189.635376" y1="196.151978" y2="203.965836"/><line fill="none" stroke="url(#pattern6)" stroke-width="0.500000" x1="178.098557" x2="189.635376" y1="197.167496" y2="205.122421"/><line fill="none" stroke="url(#pattern6)" stroke-width="0.500000" x1="178.098557" x2="189.635376" y1="198.183167" y2="206.278915"/><line fill="none" stroke="url(#pattern6)" stroke-width="0.500000" x1="178.098557" x2="189.635376" y1="199.198715" y2="207.435486"/><line fill="none" stroke="url(#pattern6)" stroke-width="0.500000" x1="178.098557" x2="189.635376" y1="200.215637" y2="208.594589"/><path d="M 188 209 C 188 209 188 209 188 209 187 208 187 208 187 208 186 209 188 210 188 209 Z" fill="url(#pattern5)" stroke="url(#pattern6)" stroke-width="0.500000"/><polyline fill="url(#pattern5)" points="188.733,209.751 188.733,207.326 187.258,206.932 187.258,209.148" stroke="url(#pattern6)" stroke-width="0.500000"/><path d="M 188 207 C 188 207 188 207 188 206 187 206 187 206 187 206 186 207 188 207 188 207 Z" fill="url(#pattern5)" stroke="url(#pattern6)" stroke-width="0.500000"/><path d="M 179 202 C 179 202 179 202 178 202 178 201 178 201 178 201 177 202 178 203 179 202 Z" fill="url(#pattern5)" stroke="url(#pattern6)" stroke-width="0.500000"/><polyline fill="url(#pattern5)" points="179.357,202.901 179.357,200.619 177.968,200.249 177.968,202.334" stroke="url(#pattern6)" stroke-width="0.500000"/><path d="M 179 200 C 179 200 179 200 178 200 178 199 178 199 178 199 177 200 178 200 179 200 Z" fill="url(#pattern5)" stroke="url(#pattern6)" stroke-width="0.500000"/><polyline fill="none" points="206.359,207.494 206.359,174.339 189.752,170.035" stroke="url(#pattern6)" stroke-width="0.500000"/><line fill="none" marker-end="url(#arrow57)" marker-start="url(#arrow58)" stroke="url(#pattern4)" stroke-width="0.666667" x1="159.435486" x2="179.156754" y1="152.980423" y2="172.701706"/><text lengthAdjust="spacingAndGlyphs" style="font-family : Times New Roman ; font-weight:normal;font-style:normal;font-size : 7.00pt;text-decoration:none;font-kerning:normal;text-transform:none;font-stretch:normal;fill:#000000;background-color:transparent;letter-spacing : 0.00em;;white-space:pre;filter:url(#filter0)" textLength="37.523724" x="114.440636" y="222.244858">VLAN 20</text><text lengthAdjust="spacingAndGlyphs" style="font-family : Times New Roman ; font-weight:normal;font-style:normal;font-size : 7.00pt;text-decoration:none;font-kerning:normal;text-transform:none;font-stretch:normal;fill:#000000;background-color:transparent;letter-spacing : 0.00em;;white-space:pre;filter:url(#filter0)" textLength="37.523724" x="52.040730" y="222.244858">VLAN 10</text><text lengthAdjust="spacingAndGlyphs" style="font-family : Times New Roman ; font-weight:normal;font-style:normal;font-size : 7.00pt;text-decoration:none;font-kerning:normal;text-transform:none;font-stretch:normal;fill:#000000;background-color:transparent;letter-spacing : 0.00em;;white-space:pre;filter:url(#filter0)" textLength="37.523724" x="173.916626" y="219.578232">VLAN 30</text></svg>