<?xml version="1.0" encoding="UTF-8" standalone="no" ?><svg viewBox="0 0 621.943075 224.153442" xmlns="http://www.w3.org/2000/svg" xmlns:xlink="http://www.w3.org/1999/xlink"><image height="31.402405" opacity="1.000000" preserveAspectRatio="none" style="" width="42.212952" x="445.690409" xlink:href="os8_nt_-_Web_7-Configuring_Shortest_Path_Bridging_image191.jpg" y="90.178772"/><image height="31.402405" opacity="1.000000" preserveAspectRatio="none" style="" width="42.212952" x="417.546672" xlink:href="os8_nt_-_Web_7-Configuring_Shortest_Path_Bridging_image192.jpg" y="9.512736"/><defs><pattern height="16" id="pattern0" patternUnits="userSpaceOnUse" width="16"><image xlink:href="TL_GFX_PATTERN_6_N_Dark_Grey0.030000.png"/></pattern><pattern height="16" id="pattern1" patternUnits="userSpaceOnUse" width="16"><image xlink:href="TL_GFX_PATTERN_0_N_Dark_Grey1.000000.png"/></pattern><pattern height="16" id="pattern2" patternUnits="userSpaceOnUse" width="16"><image xlink:href="TL_GFX_PATTERN_4_N_Dark_Grey0.300000.png"/></pattern><filter height="1" id="filter0" width="1" x="0" y="0"><feFlood flood-color="transparent"/><feComposite in="SourceGraphic"/></filter><pattern height="16" id="pattern3" patternUnits="userSpaceOnUse" width="16"><image xlink:href="TL_GFX_PATTERN_3_N_Royal_Blue0.500000.png"/></pattern><pattern height="16" id="pattern4" patternUnits="userSpaceOnUse" width="16"><image xlink:href="TL_GFX_PATTERN_2_N_Royal_Blue0.700000.png"/></pattern><pattern height="16" id="pattern5" patternUnits="userSpaceOnUse" width="16"><image xlink:href="TL_GFX_PATTERN_4_N_Royal_Blue0.300000.png"/></pattern><pattern height="16" id="pattern6" patternUnits="userSpaceOnUse" width="16"><image xlink:href="TL_GFX_PATTERN_3_N_Blue0.500000.png"/></pattern><pattern height="16" id="pattern7" patternUnits="userSpaceOnUse" width="16"><image xlink:href="TL_GFX_PATTERN_3_N_Forest_Green0.500000.png"/></pattern><pattern height="16" id="pattern8" patternUnits="userSpaceOnUse" width="16"><image xlink:href="TL_GFX_PATTERN_3_N_Red0.500000.png"/></pattern></defs><polygon fill="url(#pattern0)" points="441,162 423,163 423,198 441,195" stroke="url(#pattern1)" stroke-width="0.500000"/><polygon fill="url(#pattern0)" points="423,163 423,198 410,189 410,158" stroke="url(#pattern1)" stroke-width="0.500000"/><polygon fill="url(#pattern0)" points="423,163 410,158 424,157 441,162" stroke="url(#pattern1)" stroke-width="0.500000"/><polyline fill="none" points="423.43,158.02 439.993,162.319 439.993,195.455" stroke="url(#pattern1)" stroke-width="0.500000"/><polygon fill="url(#pattern1)" points="433,165 433,176 432,176 432,165" stroke-width="0.500000"/><line fill="url(#pattern1)" stroke="url(#pattern1)" stroke-width="0.500000" x1="435.542236" x2="438.638275" y1="163.752731" y2="163.455368"/><line fill="url(#pattern1)" stroke="url(#pattern1)" stroke-width="0.500000" x1="435.542236" x2="438.638275" y1="164.921432" y2="164.613174"/><line fill="url(#pattern1)" stroke="url(#pattern1)" stroke-width="0.500000" x1="435.542236" x2="438.638275" y1="166.090195" y2="165.770813"/><line fill="url(#pattern1)" stroke="url(#pattern1)" stroke-width="0.500000" x1="435.542236" x2="438.638275" y1="167.258911" y2="166.928650"/><line fill="url(#pattern1)" stroke="url(#pattern1)" stroke-width="0.500000" x1="435.542236" x2="438.638275" y1="168.427658" y2="168.086258"/><line fill="url(#pattern1)" stroke="url(#pattern1)" stroke-width="0.500000" x1="435.542236" x2="438.638275" y1="169.596390" y2="169.243942"/><line fill="url(#pattern1)" stroke="url(#pattern1)" stroke-width="0.500000" x1="435.542236" x2="438.638275" y1="170.765091" y2="170.401749"/><line fill="url(#pattern1)" stroke="url(#pattern1)" stroke-width="0.500000" x1="435.542236" x2="438.638275" y1="171.933853" y2="171.559387"/><line fill="url(#pattern1)" stroke="url(#pattern1)" stroke-width="0.500000" x1="435.542236" x2="438.638275" y1="173.102600" y2="172.717209"/><line fill="url(#pattern1)" stroke="url(#pattern1)" stroke-width="0.500000" x1="435.542236" x2="438.638275" y1="174.271317" y2="173.874893"/><line fill="url(#pattern1)" stroke="url(#pattern1)" stroke-width="0.500000" x1="435.542236" x2="438.638275" y1="175.440048" y2="175.032669"/><line fill="url(#pattern1)" stroke="url(#pattern1)" stroke-width="0.500000" x1="435.542236" x2="438.638275" y1="176.608749" y2="176.190353"/><line fill="url(#pattern1)" stroke="url(#pattern1)" stroke-width="0.500000" x1="435.542236" x2="438.638275" y1="177.777512" y2="177.348129"/><line fill="url(#pattern1)" stroke="url(#pattern1)" stroke-width="0.500000" x1="435.542236" x2="438.638275" y1="178.946228" y2="178.459290"/><line fill="url(#pattern1)" stroke="url(#pattern1)" stroke-width="0.500000" x1="435.542236" x2="438.638275" y1="180.114929" y2="179.663467"/><line fill="url(#pattern1)" stroke="url(#pattern1)" stroke-width="0.500000" x1="435.542236" x2="438.638275" y1="181.283676" y2="180.821274"/><line fill="url(#pattern1)" stroke="url(#pattern1)" stroke-width="0.500000" x1="435.542236" x2="438.638275" y1="182.452408" y2="181.978897"/><line fill="url(#pattern1)" stroke="url(#pattern1)" stroke-width="0.500000" x1="435.542236" x2="438.638275" y1="183.621155" y2="183.136719"/><line fill="url(#pattern1)" stroke="url(#pattern1)" stroke-width="0.500000" x1="435.542236" x2="438.638275" y1="184.789917" y2="184.294388"/><line fill="url(#pattern1)" stroke="url(#pattern1)" stroke-width="0.500000" x1="435.542236" x2="438.638275" y1="185.958618" y2="185.452194"/><line fill="url(#pattern1)" stroke="url(#pattern1)" stroke-width="0.500000" x1="435.542236" x2="438.638275" y1="187.127380" y2="186.609848"/><line fill="url(#pattern1)" stroke="url(#pattern1)" stroke-width="0.500000" x1="435.542236" x2="438.638275" y1="188.296066" y2="187.767654"/><line fill="url(#pattern1)" stroke="url(#pattern1)" stroke-width="0.500000" x1="435.542236" x2="438.638275" y1="189.464828" y2="188.925293"/><line fill="url(#pattern1)" stroke="url(#pattern1)" stroke-width="0.500000" x1="435.542236" x2="438.638275" y1="190.633545" y2="190.082962"/><line fill="url(#pattern1)" stroke="url(#pattern1)" stroke-width="0.500000" x1="435.542236" x2="438.638275" y1="191.802292" y2="191.240768"/><line fill="url(#pattern1)" stroke="url(#pattern1)" stroke-width="0.500000" x1="435.542236" x2="438.638275" y1="192.971008" y2="192.398438"/><line fill="url(#pattern1)" stroke="url(#pattern1)" stroke-width="0.500000" x1="435.542236" x2="438.638275" y1="194.139725" y2="193.556259"/><line fill="url(#pattern1)" stroke="url(#pattern1)" stroke-width="0.500000" x1="435.542236" x2="438.638275" y1="195.309860" y2="194.714661"/><ellipse cx="432" cy="164" fill="url(#pattern1)" rx="0" ry="0" stroke-width="0.500000"/><polygon fill="url(#pattern2)" points="426,165 424,165 424,165 426,165" stroke="url(#pattern1)" stroke-width="0.500000"/><polygon fill="none" points="433,176 433,165 433,165 433,176" stroke="url(#pattern1)" stroke-width="0.500000"/><polygon fill="none" points="433,176 433,176 432,176 432,176" stroke="url(#pattern1)" stroke-width="0.500000"/><path d="M 425.634918 173.989929 C 425.694092 173.874390 425.694092 173.874390 425.776703 173.864441 425.861084 173.847427 425.952026 173.852921 426.023773 173.907715 426.111664 173.954147 426.111664 173.954147 426.207520 173.932358 426.303314 173.910538 426.303314 173.910538 426.371368 173.925064 426.470367 173.936218 426.546783 174.030228 426.570038 174.128006 426.630524 174.269150 426.573273 174.438904 426.495361 174.560974 426.427979 174.662277 426.377167 174.820190 426.240814 174.834045 426.127075 174.894409 426.020660 174.779465 425.905762 174.815567 425.831207 174.826279 425.831207 174.826279 425.766846 174.816284 425.621826 174.781967 425.573822 174.584030 425.528900 174.454895" fill="none" stroke="url(#pattern1)" stroke-width="0.500000"/><path d="M 425.607086 174.063049 C 425.790131 174.165283 425.748779 174.498093 425.500977 174.528183" fill="none" stroke="url(#pattern1)" stroke-width="0.500000"/><path d="M 426 173 C 426 173 426 173 426 173 426 173 425 173 425 173 425 173 425 173 425 173 425 173 425 173 426 173 Z" fill="none" stroke="url(#pattern1)" stroke-width="0.500000"/><ellipse cx="426" cy="191" fill="none" rx="0" ry="0" stroke="url(#pattern1)" stroke-width="0.500000"/><ellipse cx="426" cy="191" fill="none" rx="0" ry="0" stroke="url(#pattern1)" stroke-width="0.500000"/><ellipse cx="426" cy="191" fill="none" rx="0" ry="0" stroke="url(#pattern1)" stroke-width="0.500000"/><ellipse cx="426" cy="194" fill="none" rx="0" ry="0" stroke="url(#pattern1)" stroke-width="0.500000"/><ellipse cx="426" cy="194" fill="none" rx="0" ry="0" stroke="url(#pattern1)" stroke-width="0.500000"/><polygon fill="none" points="426,194 426,194 425,194" stroke="url(#pattern1)" stroke-width="0.500000"/><line fill="none" stroke="url(#pattern1)" stroke-width="0.500000" x1="411.525055" x2="423.061890" y1="160.794006" y2="165.364426"/><line fill="none" stroke="url(#pattern1)" stroke-width="0.500000" x1="411.525055" x2="423.061890" y1="161.809692" y2="166.520950"/><line fill="none" stroke="url(#pattern1)" stroke-width="0.500000" x1="411.525055" x2="423.061890" y1="162.825211" y2="167.677505"/><line fill="none" stroke="url(#pattern1)" stroke-width="0.500000" x1="411.525055" x2="423.061890" y1="163.840714" y2="168.834091"/><line fill="none" stroke="url(#pattern1)" stroke-width="0.500000" x1="411.525055" x2="423.061890" y1="164.856247" y2="169.990662"/><line fill="none" stroke="url(#pattern1)" stroke-width="0.500000" x1="411.525055" x2="423.061890" y1="165.871948" y2="171.147217"/><line fill="none" stroke="url(#pattern1)" stroke-width="0.500000" x1="411.525055" x2="423.061890" y1="166.887451" y2="172.303909"/><line fill="none" stroke="url(#pattern1)" stroke-width="0.500000" x1="411.525055" x2="423.061890" y1="167.903000" y2="173.460449"/><line fill="none" stroke="url(#pattern1)" stroke-width="0.500000" x1="411.525055" x2="423.061890" y1="168.918640" y2="174.617065"/><line fill="none" stroke="url(#pattern1)" stroke-width="0.500000" x1="411.525055" x2="423.061890" y1="169.934128" y2="175.773621"/><line fill="none" stroke="url(#pattern1)" stroke-width="0.500000" x1="411.525055" x2="423.061890" y1="170.949661" y2="176.930130"/><line fill="none" stroke="url(#pattern1)" stroke-width="0.500000" x1="411.525055" x2="423.061890" y1="171.965378" y2="178.086853"/><line fill="none" stroke="url(#pattern1)" stroke-width="0.500000" x1="411.525055" x2="423.061890" y1="172.980881" y2="179.243454"/><line fill="none" stroke="url(#pattern1)" stroke-width="0.500000" x1="411.525055" x2="423.061890" y1="173.996414" y2="180.400009"/><line fill="none" stroke="url(#pattern1)" stroke-width="0.500000" x1="411.525055" x2="423.061890" y1="175.011917" y2="181.556564"/><line fill="none" stroke="url(#pattern1)" stroke-width="0.500000" x1="411.525055" x2="423.061890" y1="176.027588" y2="182.713150"/><line fill="none" stroke="url(#pattern1)" stroke-width="0.500000" x1="411.525055" x2="423.061890" y1="177.043152" y2="183.869705"/><line fill="none" stroke="url(#pattern1)" stroke-width="0.500000" x1="411.525055" x2="423.061890" y1="178.058655" y2="185.026382"/><line fill="none" stroke="url(#pattern1)" stroke-width="0.500000" x1="411.525055" x2="423.061890" y1="179.074341" y2="186.182938"/><line fill="none" stroke="url(#pattern1)" stroke-width="0.500000" x1="411.525055" x2="423.061890" y1="180.089859" y2="187.339523"/><line fill="none" stroke="url(#pattern1)" stroke-width="0.500000" x1="411.525055" x2="423.061890" y1="181.105392" y2="188.496078"/><line fill="none" stroke="url(#pattern1)" stroke-width="0.500000" x1="411.525055" x2="423.061890" y1="182.121078" y2="189.652649"/><line fill="none" stroke="url(#pattern1)" stroke-width="0.500000" x1="411.525055" x2="423.061890" y1="183.136551" y2="190.809402"/><line fill="none" stroke="url(#pattern1)" stroke-width="0.500000" x1="411.525055" x2="423.061890" y1="184.152084" y2="191.965942"/><line fill="none" stroke="url(#pattern1)" stroke-width="0.500000" x1="411.525055" x2="423.061890" y1="185.167603" y2="193.122513"/><line fill="none" stroke="url(#pattern1)" stroke-width="0.500000" x1="411.525055" x2="423.061890" y1="186.183273" y2="194.279007"/><line fill="none" stroke="url(#pattern1)" stroke-width="0.500000" x1="411.525055" x2="423.061890" y1="187.198807" y2="195.435593"/><line fill="none" stroke="url(#pattern1)" stroke-width="0.500000" x1="411.525055" x2="423.061890" y1="188.215744" y2="196.594681"/><path d="M 422 197 C 422 197 422 197 421 197 420 196 420 196 420 196 420 197 421 198 422 197 Z" fill="url(#pattern0)" stroke="url(#pattern1)" stroke-width="0.500000"/><polyline fill="url(#pattern0)" points="422.16,197.751 422.16,195.326 420.684,194.933 420.684,197.148" stroke="url(#pattern1)" stroke-width="0.500000"/><path d="M 422 195 C 422 195 422 195 421 194 420 194 420 194 420 194 420 195 421 195 422 195 Z" fill="url(#pattern0)" stroke="url(#pattern1)" stroke-width="0.500000"/><path d="M 412 190 C 412 190 412 190 412 190 411 189 411 189 411 189 410 190 412 191 412 190 Z" fill="url(#pattern0)" stroke="url(#pattern1)" stroke-width="0.500000"/><polyline fill="url(#pattern0)" points="412.783,190.901 412.783,188.619 411.395,188.249 411.395,190.334" stroke="url(#pattern1)" stroke-width="0.500000"/><path d="M 412 188 C 412 188 412 188 412 188 411 187 411 187 411 187 410 188 412 188 412 188 Z" fill="url(#pattern0)" stroke="url(#pattern1)" stroke-width="0.500000"/><polyline fill="none" points="439.785,195.495 439.785,162.339 423.179,158.035" stroke="url(#pattern1)" stroke-width="0.500000"/><text lengthAdjust="spacingAndGlyphs" style="font-family : Times New Roman ; font-weight:normal;font-style:normal;font-size : 7.00pt;text-decoration:none;font-kerning:normal;text-transform:none;font-stretch:normal;fill:#000000;background-color:transparent;letter-spacing : 0.00em;;white-space:pre;filter:url(#filter0)" textLength="37.523724" x="417.546661" y="50.246174">VLAN 10</text><text lengthAdjust="spacingAndGlyphs" style="font-family : Times New Roman ; font-weight:normal;font-style:normal;font-size : 7.00pt;text-decoration:none;font-kerning:normal;text-transform:none;font-stretch:normal;fill:#000000;background-color:transparent;letter-spacing : 0.00em;;white-space:pre;filter:url(#filter0)" textLength="37.523724" x="448.035004" y="130.912216">VLAN 20</text><text lengthAdjust="spacingAndGlyphs" style="font-family : Times New Roman ; font-weight:normal;font-style:normal;font-size : 7.00pt;text-decoration:none;font-kerning:normal;text-transform:none;font-stretch:normal;fill:#000000;background-color:transparent;letter-spacing : 0.00em;;white-space:pre;filter:url(#filter0)" textLength="37.523724" x="410.880035" y="207.578323">VLAN 30</text><rect fill="url(#pattern3)" height="20.309326" stroke="url(#pattern4)" stroke-width="0.666667" width="168.790207" x="223.124557" y="95.588768"/><ellipse cx="392" cy="105" fill="url(#pattern5)" rx="8" ry="10" stroke="url(#pattern4)" stroke-width="0.666667"/><ellipse cx="224" cy="105" fill="url(#pattern3)" rx="8" ry="10" stroke="url(#pattern3)" stroke-width="0.666667"/><line fill="none" stroke="url(#pattern6)" stroke-width="1.333333" x1="402.356689" x2="452.356323" y1="104.509094" y2="104.509094"/><polyline fill="none" points="420.801,21.1764 353.468,21.1764 353.468,25.1764 353.468,95.8425" stroke="url(#pattern7)" stroke-width="1.333333"/><polyline fill="none" points="412.801,171.842 328.802,171.842 328.802,116.509" stroke="url(#pattern8)" stroke-width="1.333333"/><image height="31.402405" opacity="1.000000" preserveAspectRatio="none" style="" width="42.212952" x="150.881632" xlink:href="os8_nt_-_Web_7-Configuring_Shortest_Path_Bridging_image193.jpg" y="9.512736"/><text lengthAdjust="spacingAndGlyphs" style="font-family : Times New Roman ; font-weight:normal;font-style:normal;font-size : 7.00pt;text-decoration:none;font-kerning:normal;text-transform:none;font-stretch:normal;fill:#000000;background-color:transparent;letter-spacing : 0.00em;;white-space:pre;filter:url(#filter0)" textLength="37.523724" x="150.881638" y="50.246174">VLAN 10</text><polyline fill="none" points="186.803,21.1764 244.802,21.1764 244.802,25.1764 244.802,95.8425" stroke="url(#pattern7)" stroke-width="1.333333"/><polygon fill="url(#pattern0)" points="199,162 181,163 181,198 199,195" stroke="url(#pattern1)" stroke-width="0.500000"/><polygon fill="url(#pattern0)" points="181,163 181,198 168,189 168,158" stroke="url(#pattern1)" stroke-width="0.500000"/><polygon fill="url(#pattern0)" points="181,163 168,158 182,157 199,162" stroke="url(#pattern1)" stroke-width="0.500000"/><polyline fill="none" points="181.209,158.02 197.773,162.319 197.773,195.455" stroke="url(#pattern1)" stroke-width="0.500000"/><polygon fill="url(#pattern1)" points="191,165 191,176 190,176 190,165" stroke-width="0.500000"/><line fill="url(#pattern1)" stroke="url(#pattern1)" stroke-width="0.500000" x1="193.321518" x2="196.417526" y1="163.752731" y2="163.455368"/><line fill="url(#pattern1)" stroke="url(#pattern1)" stroke-width="0.500000" x1="193.321518" x2="196.417526" y1="164.921432" y2="164.613174"/><line fill="url(#pattern1)" stroke="url(#pattern1)" stroke-width="0.500000" x1="193.321518" x2="196.417526" y1="166.090195" y2="165.770813"/><line fill="url(#pattern1)" stroke="url(#pattern1)" stroke-width="0.500000" x1="193.321518" x2="196.417526" y1="167.258911" y2="166.928650"/><line fill="url(#pattern1)" stroke="url(#pattern1)" stroke-width="0.500000" x1="193.321518" x2="196.417526" y1="168.427658" y2="168.086258"/><line fill="url(#pattern1)" stroke="url(#pattern1)" stroke-width="0.500000" x1="193.321518" x2="196.417526" y1="169.596390" y2="169.243942"/><line fill="url(#pattern1)" stroke="url(#pattern1)" stroke-width="0.500000" x1="193.321518" x2="196.417526" y1="170.765091" y2="170.401749"/><line fill="url(#pattern1)" stroke="url(#pattern1)" stroke-width="0.500000" x1="193.321518" x2="196.417526" y1="171.933853" y2="171.559387"/><line fill="url(#pattern1)" stroke="url(#pattern1)" stroke-width="0.500000" x1="193.321518" x2="196.417526" y1="173.102600" y2="172.717209"/><line fill="url(#pattern1)" stroke="url(#pattern1)" stroke-width="0.500000" x1="193.321518" x2="196.417526" y1="174.271317" y2="173.874893"/><line fill="url(#pattern1)" stroke="url(#pattern1)" stroke-width="0.500000" x1="193.321518" x2="196.417526" y1="175.440048" y2="175.032669"/><line fill="url(#pattern1)" stroke="url(#pattern1)" stroke-width="0.500000" x1="193.321518" x2="196.417526" y1="176.608749" y2="176.190353"/><line fill="url(#pattern1)" stroke="url(#pattern1)" stroke-width="0.500000" x1="193.321518" x2="196.417526" y1="177.777512" y2="177.348129"/><line fill="url(#pattern1)" stroke="url(#pattern1)" stroke-width="0.500000" x1="193.321518" x2="196.417526" y1="178.946228" y2="178.459290"/><line fill="url(#pattern1)" stroke="url(#pattern1)" stroke-width="0.500000" x1="193.321518" x2="196.417526" y1="180.114929" y2="179.663467"/><line fill="url(#pattern1)" stroke="url(#pattern1)" stroke-width="0.500000" x1="193.321518" x2="196.417526" y1="181.283676" y2="180.821274"/><line fill="url(#pattern1)" stroke="url(#pattern1)" stroke-width="0.500000" x1="193.321518" x2="196.417526" y1="182.452408" y2="181.978897"/><line fill="url(#pattern1)" stroke="url(#pattern1)" stroke-width="0.500000" x1="193.321518" x2="196.417526" y1="183.621155" y2="183.136719"/><line fill="url(#pattern1)" stroke="url(#pattern1)" stroke-width="0.500000" x1="193.321518" x2="196.417526" y1="184.789917" y2="184.294388"/><line fill="url(#pattern1)" stroke="url(#pattern1)" stroke-width="0.500000" x1="193.321518" x2="196.417526" y1="185.958618" y2="185.452194"/><line fill="url(#pattern1)" stroke="url(#pattern1)" stroke-width="0.500000" x1="193.321518" x2="196.417526" y1="187.127380" y2="186.609848"/><line fill="url(#pattern1)" stroke="url(#pattern1)" stroke-width="0.500000" x1="193.321518" x2="196.417526" y1="188.296066" y2="187.767654"/><line fill="url(#pattern1)" stroke="url(#pattern1)" stroke-width="0.500000" x1="193.321518" x2="196.417526" y1="189.464828" y2="188.925293"/><line fill="url(#pattern1)" stroke="url(#pattern1)" stroke-width="0.500000" x1="193.321518" x2="196.417526" y1="190.633545" y2="190.082962"/><line fill="url(#pattern1)" stroke="url(#pattern1)" stroke-width="0.500000" x1="193.321518" x2="196.417526" y1="191.802292" y2="191.240768"/><line fill="url(#pattern1)" stroke="url(#pattern1)" stroke-width="0.500000" x1="193.321518" x2="196.417526" y1="192.971008" y2="192.398438"/><line fill="url(#pattern1)" stroke="url(#pattern1)" stroke-width="0.500000" x1="193.321518" x2="196.417526" y1="194.139725" y2="193.556259"/><line fill="url(#pattern1)" stroke="url(#pattern1)" stroke-width="0.500000" x1="193.321518" x2="196.417526" y1="195.309860" y2="194.714661"/><ellipse cx="190" cy="164" fill="url(#pattern1)" rx="0" ry="0" stroke-width="0.500000"/><polygon fill="url(#pattern2)" points="183,165 182,165 182,165 183,165" stroke="url(#pattern1)" stroke-width="0.500000"/><polygon fill="none" points="191,176 191,165 191,165 191,176" stroke="url(#pattern1)" stroke-width="0.500000"/><polygon fill="none" points="191,176 191,176 190,176 190,176" stroke="url(#pattern1)" stroke-width="0.500000"/><path d="M 183.414200 173.989929 C 183.473328 173.874390 183.473328 173.874390 183.555923 173.864441 183.640335 173.847427 183.731277 173.852921 183.803040 173.907715 183.890915 173.954147 183.890915 173.954147 183.986771 173.932358 184.082581 173.910538 184.082581 173.910538 184.150635 173.925064 184.249634 173.936218 184.326065 174.030228 184.349289 174.128006 184.409790 174.269150 184.352539 174.438904 184.274612 174.560974 184.207230 174.662277 184.156418 174.820190 184.020081 174.834045 183.906326 174.894409 183.799911 174.779465 183.685013 174.815567 183.610489 174.826279 183.610489 174.826279 183.546097 174.816284 183.401062 174.781967 183.353043 174.584030 183.308121 174.454895" fill="none" stroke="url(#pattern1)" stroke-width="0.500000"/><path d="M 183.386337 174.063049 C 183.569351 174.165283 183.528015 174.498093 183.280212 174.528183" fill="none" stroke="url(#pattern1)" stroke-width="0.500000"/><path d="M 183 173 C 183 173 183 173 183 173 183 173 183 173 183 173 183 173 183 173 183 173 183 173 183 173 183 173 Z" fill="none" stroke="url(#pattern1)" stroke-width="0.500000"/><ellipse cx="183" cy="191" fill="none" rx="0" ry="0" stroke="url(#pattern1)" stroke-width="0.500000"/><ellipse cx="183" cy="191" fill="none" rx="0" ry="0" stroke="url(#pattern1)" stroke-width="0.500000"/><ellipse cx="183" cy="191" fill="none" rx="0" ry="0" stroke="url(#pattern1)" stroke-width="0.500000"/><ellipse cx="183" cy="194" fill="none" rx="0" ry="0" stroke="url(#pattern1)" stroke-width="0.500000"/><ellipse cx="183" cy="194" fill="none" rx="0" ry="0" stroke="url(#pattern1)" stroke-width="0.500000"/><polygon fill="none" points="184,194 183,194 183,194" stroke="url(#pattern1)" stroke-width="0.500000"/><line fill="none" stroke="url(#pattern1)" stroke-width="0.500000" x1="169.304321" x2="180.841141" y1="160.794006" y2="165.364426"/><line fill="none" stroke="url(#pattern1)" stroke-width="0.500000" x1="169.304321" x2="180.841141" y1="161.809692" y2="166.520950"/><line fill="none" stroke="url(#pattern1)" stroke-width="0.500000" x1="169.304321" x2="180.841141" y1="162.825211" y2="167.677505"/><line fill="none" stroke="url(#pattern1)" stroke-width="0.500000" x1="169.304321" x2="180.841141" y1="163.840714" y2="168.834091"/><line fill="none" stroke="url(#pattern1)" stroke-width="0.500000" x1="169.304321" x2="180.841141" y1="164.856247" y2="169.990662"/><line fill="none" stroke="url(#pattern1)" stroke-width="0.500000" x1="169.304321" x2="180.841141" y1="165.871948" y2="171.147217"/><line fill="none" stroke="url(#pattern1)" stroke-width="0.500000" x1="169.304321" x2="180.841141" y1="166.887451" y2="172.303909"/><line fill="none" stroke="url(#pattern1)" stroke-width="0.500000" x1="169.304321" x2="180.841141" y1="167.903000" y2="173.460449"/><line fill="none" stroke="url(#pattern1)" stroke-width="0.500000" x1="169.304321" x2="180.841141" y1="168.918640" y2="174.617065"/><line fill="none" stroke="url(#pattern1)" stroke-width="0.500000" x1="169.304321" x2="180.841141" y1="169.934128" y2="175.773621"/><line fill="none" stroke="url(#pattern1)" stroke-width="0.500000" x1="169.304321" x2="180.841141" y1="170.949661" y2="176.930130"/><line fill="none" stroke="url(#pattern1)" stroke-width="0.500000" x1="169.304321" x2="180.841141" y1="171.965378" y2="178.086853"/><line fill="none" stroke="url(#pattern1)" stroke-width="0.500000" x1="169.304321" x2="180.841141" y1="172.980881" y2="179.243454"/><line fill="none" stroke="url(#pattern1)" stroke-width="0.500000" x1="169.304321" x2="180.841141" y1="173.996414" y2="180.400009"/><line fill="none" stroke="url(#pattern1)" stroke-width="0.500000" x1="169.304321" x2="180.841141" y1="175.011917" y2="181.556564"/><line fill="none" stroke="url(#pattern1)" stroke-width="0.500000" x1="169.304321" x2="180.841141" y1="176.027588" y2="182.713150"/><line fill="none" stroke="url(#pattern1)" stroke-width="0.500000" x1="169.304321" x2="180.841141" y1="177.043152" y2="183.869705"/><line fill="none" stroke="url(#pattern1)" stroke-width="0.500000" x1="169.304321" x2="180.841141" y1="178.058655" y2="185.026382"/><line fill="none" stroke="url(#pattern1)" stroke-width="0.500000" x1="169.304321" x2="180.841141" y1="179.074341" y2="186.182938"/><line fill="none" stroke="url(#pattern1)" stroke-width="0.500000" x1="169.304321" x2="180.841141" y1="180.089859" y2="187.339523"/><line fill="none" stroke="url(#pattern1)" stroke-width="0.500000" x1="169.304321" x2="180.841141" y1="181.105392" y2="188.496078"/><line fill="none" stroke="url(#pattern1)" stroke-width="0.500000" x1="169.304321" x2="180.841141" y1="182.121078" y2="189.652649"/><line fill="none" stroke="url(#pattern1)" stroke-width="0.500000" x1="169.304321" x2="180.841141" y1="183.136551" y2="190.809402"/><line fill="none" stroke="url(#pattern1)" stroke-width="0.500000" x1="169.304321" x2="180.841141" y1="184.152084" y2="191.965942"/><line fill="none" stroke="url(#pattern1)" stroke-width="0.500000" x1="169.304321" x2="180.841141" y1="185.167603" y2="193.122513"/><line fill="none" stroke="url(#pattern1)" stroke-width="0.500000" x1="169.304321" x2="180.841141" y1="186.183273" y2="194.279007"/><line fill="none" stroke="url(#pattern1)" stroke-width="0.500000" x1="169.304321" x2="180.841141" y1="187.198807" y2="195.435593"/><line fill="none" stroke="url(#pattern1)" stroke-width="0.500000" x1="169.304321" x2="180.841141" y1="188.215744" y2="196.594681"/><path d="M 179 197 C 179 197 179 197 179 197 178 196 178 196 178 196 177 197 179 198 179 197 Z" fill="url(#pattern0)" stroke="url(#pattern1)" stroke-width="0.500000"/><polyline fill="url(#pattern0)" points="179.939,197.751 179.939,195.326 178.464,194.933 178.464,197.148" stroke="url(#pattern1)" stroke-width="0.500000"/><path d="M 179 195 C 179 195 179 195 179 194 178 194 178 194 178 194 177 195 179 195 179 195 Z" fill="url(#pattern0)" stroke="url(#pattern1)" stroke-width="0.500000"/><path d="M 170 190 C 170 190 170 190 169 190 169 189 169 189 169 189 168 190 170 191 170 190 Z" fill="url(#pattern0)" stroke="url(#pattern1)" stroke-width="0.500000"/><polyline fill="url(#pattern0)" points="170.562,190.901 170.562,188.619 169.174,188.249 169.174,190.334" stroke="url(#pattern1)" stroke-width="0.500000"/><path d="M 170 188 C 170 188 170 188 169 188 169 187 169 187 169 187 168 188 170 188 170 188 Z" fill="url(#pattern0)" stroke="url(#pattern1)" stroke-width="0.500000"/><polyline fill="none" points="197.565,195.495 197.565,162.339 180.958,158.035" stroke="url(#pattern1)" stroke-width="0.500000"/><text lengthAdjust="spacingAndGlyphs" style="font-family : Times New Roman ; font-weight:normal;font-style:normal;font-size : 7.00pt;text-decoration:none;font-kerning:normal;text-transform:none;font-stretch:normal;fill:#000000;background-color:transparent;letter-spacing : 0.00em;;white-space:pre;filter:url(#filter0)" textLength="37.523724" x="168.659302" y="207.578323">VLAN 30</text><polyline fill="none" points="199.247,171.842 268.58,171.842 268.58,116.509" stroke="url(#pattern8)" stroke-width="1.333333"/><image height="31.402405" opacity="1.000000" preserveAspectRatio="none" style="" width="42.212952" x="131.247884" xlink:href="os8_nt_-_Web_7-Configuring_Shortest_Path_Bridging_image194.jpg" y="90.178772"/><text lengthAdjust="spacingAndGlyphs" style="font-family : Times New Roman ; font-weight:normal;font-style:normal;font-size : 7.00pt;text-decoration:none;font-kerning:normal;text-transform:none;font-stretch:normal;fill:#000000;background-color:transparent;letter-spacing : 0.00em;;white-space:pre;filter:url(#filter0)" textLength="37.523724" x="133.592484" y="130.912216">VLAN 20</text><line fill="none" stroke="url(#pattern6)" stroke-width="1.333333" x1="167.913696" x2="217.913315" y1="104.509094" y2="104.509094"/></svg>